# AST/ASF file generated using VICON BodyLanguage
# -----------------------------------------------
:version 1.10
:name VICON
:units
  mass 1.0
  length 0.45
  angle deg
:documentation
   .ast/.asf automatically generated from VICON data using
   VICON BodyBuilder and BodyLanguage model FoxedUp or BRILLIANT.MOD
:root
   order TX TY TZ RX RY RZ
   axis XYZ
   position 0 0 0  
   orientation 0 0 0 
:bonedata
  begin
     id 1 
     name lhipjoint
     direction 0.682418 -0.694059 0.22932 
     length 2.25561 
     axis 0 0 0  XYZ
  end
  begin
     id 2 
     name lfemur
     direction 0.34202 -0.939693 0  
     length 6.96448  
     axis 0 0 20  XYZ
    dof rx ry rz
    limits (-160.0 20.0)
           (-70.0 70.0)
           (-60.0 70.0)
  end
  begin
     id 3 
     name ltibia
     direction 0.34202 -0.939693 0   
     length 6.88553   
     axis 0 0 20   XYZ
    dof rx
    limits (-10.0 170.0)
  end
  begin
     id 4 
     name lfoot
     direction 0.0723587 -0.198804 0.977364   
     length 1.88518   
     axis -90 7.62852e-016 20   XYZ
    dof rx rz
    limits (-45.0 90.0)
           (-70.0 20.0)
  end
  begin
     id 5 
     name ltoes
     direction 1.53558e-011 -4.21962e-011 1   
     length 0.952124   
     axis -90 7.62852e-016 20   XYZ
    dof rx
    limits (-90.0 20.0)
  end
  begin
     id 6 
     name rhipjoint
     direction -0.657603 -0.71533 0.236348   
     length 2.18854  
     axis 0 0 0  XYZ 
  end
  begin
     id 7 
     name rfemur
     direction -0.34202 -0.939693 0   
     length 6.86686   
     axis 0 0 -20   XYZ
    dof rx ry rz
    limits (-160.0 20.0)
           (-70.0 70.0)
           (-70.0 60.0)
  end
  begin
     id 8 
     name rtibia
     direction -0.34202 -0.939693 0   
     length 6.59503   
     axis 0 0 -20   XYZ
    dof rx
    limits (-10.0 170.0)
 end
 begin
     id 9 
     name rfoot
     direction -0.101977 -0.280179 0.954516   
     length 1.93723  
     axis -90 -7.62852e-016 -20   XYZ
    dof rx rz
    limits (-45.0 90.0)
           (-20.0 70.0)
  end
  begin
     id 10 
     name rtoes
     direction -1.53564e-011 -4.21897e-011 1   
     length 0.970315   
     axis -90 -7.62852e-016 -20   XYZ
    dof rx
    limits (-90.0 20.0)
  end
  begin
     id 11 
     name lowerback
     direction -0.0339559 0.999421 -0.00235966   
     length 1.88543   
     axis 0 0 0   XYZ
    dof rx ry rz
    limits (-20.0 45.0)
           (-30.0 30.0)
           (-30.0 30.0)
  end
  begin
     id 12 
     name upperback
     direction 0.00401003 0.999739 0.0224689   
     length 1.8856   
     axis 0 0 0   XYZ
    dof rx ry rz
    limits (-20.0 45.0)
           (-30.0 30.0)
           (-30.0 30.0)
  end
  begin
     id 13 
     name thorax
     direction 0.0198619 0.999546 0.0226536   
     length 1.88352   
     axis 0 0 0   XYZ
    dof rx ry rz
    limits (-20.0 45.0)
           (-30.0 30.0)
           (-30.0 30.0)
  end
  begin
     id 14 
     name lowerneck
     direction -0.0461848 0.998632 0.0245198   
     length 1.34895   
     axis 0 0 0   XYZ
    dof rx ry rz
    limits (-20.0 45.0)
           (-30.0 30.0)
           (-30.0 30.0)
  end
  begin
     id 15 
     name upperneck
     direction -0.0180627 0.994724 -0.100984   
     length 1.35214   
     axis 0 0 0   XYZ
    dof rx ry rz
    limits (-20.0 45.0)
           (-30.0 30.0)
           (-30.0 30.0)
  end
  begin
     id 16
     name head
     direction -0.00374772 0.999293 -0.037403  
     length 1.3568  
     axis 0 0 0   XYZ
    dof rx ry rz
    limits (-20.0 45.0)
           (-30.0 30.0)
           (-30.0 30.0)
  end
  begin
     id 17 
     name lclavicle
     direction 0.971773 0.191119 0.138311  
     length 2.84954  
     axis 0 0 0   XYZ
    dof ry rz
    limits (-20.0 10.0)
           (0.0 20.0)
  end
  begin
     id 18 
     name lhumerus
     direction 1 -4.4897e-011 -2.43761e-027   
     length 4.40919   
     axis 180 -30 -90   XYZ
    dof rx ry rz
    limits (-60.0 90.0)
           (-90.0 90.0)
           (-90.0 90.0)
  end
  begin
     id 19
     name lradius
     direction 1 -4.4896e-011 -9.1621e-027   
     length 3.03857   
     axis 180 -30 -90   XYZ
    dof rx
    limits (-10.0 170.0)
  end
  begin
     id 20
     name lwrist
     direction 1 -4.4896e-011 -1.41363e-026   
     length 1.51928   
     axis 1.07133e-014 90 90   XYZ
    dof ry
    limits (-180.0 0.0)
 end
  begin
     id 21 
     name lhand
     direction 1 -4.48978e-011 -2.82725e-026   
     length 0.523208   
     axis 1.80403e-014 90 90   XYZ
    dof rx rz
    limits (-90.0 90.0)
           (-45.0 45.0)
  end
  begin
     id 22 
     name lfingers
     direction 1 -4.48977e-011 -5.6545e-026   
     length 0.421824   
     axis 3.60806e-014 90 90   XYZ
    dof rx
    limits (0.0 90.0)
  end
  begin
     id 23
     name lthumb
     direction 0.707107 -6.34962e-011 0.707107   
     length 0.605657   
     axis -90 45 2.85299e-015   XYZ
    dof rx rz
    limits (-45.0 45.0)
           (-45.0 45.0)
  end
  begin
     id 24 
     name rclavicle
     direction -0.957247 0.24311 0.156766   
     length 3.12406  
     axis 0 0 0   XYZ 
    dof ry rz
    limits (-10.0 20.0)
           (-20.0 0.0)
  end
  begin
     id 25 
     name rhumerus
     direction -1 -4.48964e-011 -1.70632e-027  
     length 4.61969   
     axis 180 30 90   XYZ
    dof rx ry rz
    limits (-90.0 60.0)
           (-90.0 90.0)
           (-90.0 90.0)
  end
  begin
     id 26 
     name rradius
     direction -1 -4.48966e-011 -6.60395e-027   
     length 3.09382   
     axis 180 30 90   XYZ
    dof rx
    limits (-10.0 170.0)
  end
  begin
     id 27 
     name rwrist
     direction -1 -4.48963e-011 -1.41363e-026   
     length 1.54691   
     axis 1.07133e-014 -90 -90   XYZ
    dof ry
    limits (-180.0 0.0)
  end
  begin
     id 28
     name rhand
     direction -1 -4.49013e-011 -2.82725e-026   
     length 0.500896   
     axis 1.80403e-014 -90 -90   XYZ
    dof rx rz
    limits (-90.0 90.0)
           (-45.0 45.0)
  end
  begin
     id 29
     name rfingers
     direction -1 -4.48902e-011 -5.6545e-026   
     length 0.403835   
     axis 3.60806e-014 -90 -90   XYZ
    dof rx
    limits (0.0 90.0)
  end
  begin
     id 30
     name rthumb
     direction -0.707107 -6.34953e-011 0.707107   
     length 0.579829   
     axis -90 -45 -2.85299e-015   XYZ
    dof rx rz
    limits (-45.0 45.0)
           (-45.0 45.0)
  end
:hierarchy
  begin
    root lhipjoint rhipjoint lowerback
    lhipjoint lfemur
    lfemur ltibia
    ltibia lfoot
    lfoot ltoes
    rhipjoint rfemur
    rfemur rtibia
    rtibia rfoot
    rfoot rtoes
    lowerback upperback
    upperback thorax
    thorax lowerneck lclavicle rclavicle
    lowerneck upperneck
    upperneck head
    lclavicle lhumerus
    lhumerus lradius
    lradius lwrist
    lwrist lhand lthumb
    lhand lfingers
    rclavicle rhumerus
    rhumerus rradius
    rradius rwrist
    rwrist rhand rthumb
    rhand rfingers
  end

#!OML:ASF E:\madness\Project 1\Capture day 1\Session 1\Female1.ASF
:FULLY-SPECIFIED
:DEGREES
744
root 3.13714 16.2866 0.0100079 -166.753 -60.747 175.247
lowerback -3.64562 -1.31439 -2.2399
upperback -3.69062 -1.80836 0.0478837
thorax -1.67889 -0.899819 1.26568
lowerneck 2.36281 15.182 10.7302
upperneck 22.4531 21.6111 -10.4956
head 9.01396 9.99894 -3.4183
rclavicle -6.02597e-014 0
rhumerus -51.5371 -9.79413 -76.1939
rradius 41.4424
rwrist 2.94007
rhand -17.2951 -45.6508
rfingers 7.12502
rthumb 8.95062 -75.4409
lclavicle -6.02597e-014 0
lhumerus -53.6295 12.565 74.0501
lradius 51.5986
lwrist -8.5646
lhand -29.8533 -14.0332
lfingers 7.12502
lthumb -3.1758 15.9229
rfemur -22.2046 26.9506 6.9469
rtibia 18.6872
rfoot -8.84594 0.421588
rtoes 1.03251
lfemur -10.5772 -9.04808 -24.2857
ltibia 20.4675
lfoot -19.6956 39.2648
ltoes 33.3762
745
root 3.13571 16.2868 0.0108671 -166.701 -60.8174 175.217
lowerback -3.72033 -1.29661 -2.17603
upperback -3.67588 -1.78462 -0.00358872
thorax -1.62617 -0.890779 1.17554
lowerneck 2.53069 15.2814 11.1159
upperneck 22.3299 21.8068 -10.7976
head 9.04937 10.1107 -3.55309
rclavicle -8.50641e-014 -2.78299e-015
rhumerus -51.5799 -9.90265 -76.242
rradius 41.6882
rwrist 3.01399
rhand -16.7692 -46.4314
rfingers 7.12502
rthumb 9.45808 -76.1992
lclavicle -8.50641e-014 -2.78299e-015
lhumerus -53.5413 12.3761 74.1222
lradius 51.5706
lwrist -8.39047
lhand -29.7507 -13.9525
lfingers 7.12502
lthumb -3.07667 16.0051
rfemur -22.2277 26.951 6.92345
rtibia 18.713
rfoot -8.88902 0.325725
rtoes 0.723104
lfemur -10.6001 -9.0401 -24.2938
ltibia 20.4314
lfoot -19.1857 39.3668
ltoes 32.4179
746
root 3.13417 16.287 0.0115824 -166.6 -60.8811 175.112
lowerback -3.71086 -1.23152 -2.20154
upperback -3.70643 -1.69942 -0.023719
thorax -1.666 -0.847697 1.17199
lowerneck 2.74725 15.332 11.3112
upperneck 22.1823 21.925 -11.0347
head 9.02761 10.179 -3.65819
rclavicle 1.19909e-014 -1.78906e-015
rhumerus -51.7315 -10.106 -76.0231
rradius 41.5826
rwrist 2.84983
rhand -17.148 -45.5359
rfingers 7.12502
rthumb 9.09255 -75.3199
lclavicle 1.19909e-014 -1.78906e-015
lhumerus -53.5207 12.196 74.273
lradius 51.5455
lwrist -8.34057
lhand -29.7945 -14.0996
lfingers 7.12502
lthumb -3.11904 15.8574
rfemur -22.2187 26.9514 6.87053
rtibia 18.7339
rfoot -8.9585 0.247145
rtoes 0.617146
lfemur -10.595 -9.06379 -24.3356
ltibia 20.392
lfoot -19.2427 39.2687
ltoes 32.3315
747
root 3.13215 16.2879 0.0117512 -166.604 -60.9192 175.12
lowerback -3.69613 -1.14503 -2.20071
upperback -3.73662 -1.58542 0.00581831
thorax -1.70871 -0.789932 1.20537
lowerneck 2.82286 15.3893 11.1397
upperneck 22.1 21.9928 -10.9455
head 8.96247 10.2132 -3.60548
rclavicle -6.26198e-015 -3.97569e-015
rhumerus -51.8783 -10.1676 -75.8532
rradius 41.6731
rwrist 2.6739
rhand -17.2041 -45.407
rfingers 7.12502
rthumb 9.03835 -75.1934
lclavicle -6.26198e-015 -3.97569e-015
lhumerus -53.4448 11.9713 74.5122
lradius 51.4021
lwrist -8.21109
lhand -29.9384 -14.3351
lfingers 7.12502
lthumb -3.25801 15.6197
rfemur -22.1963 26.9421 6.88459
rtibia 18.7392
rfoot -8.98736 0.220479
rtoes 0.537792
lfemur -10.577 -9.09395 -24.3209
ltibia 20.3636
lfoot -19.541 39.1476
ltoes 32.8024
748
root 3.12975 16.2876 0.0112821 -166.649 -60.9152 175.201
lowerback -3.74803 -1.07443 -2.1357
upperback -3.7316 -1.49158 -0.00591966
thorax -1.67969 -0.744997 1.15795
lowerneck 2.91608 15.5146 10.9708
upperneck 22.0323 22.1176 -10.664
head 8.88376 10.2912 -3.48454
rclavicle 4.27251e-014 7.7526e-015
rhumerus -51.913 -10.2617 -75.8539
rradius 41.7919
rwrist 2.56624
rhand -17.2118 -45.85
rfingers 7.12502
rthumb 9.03096 -75.6367
lclavicle 4.27251e-014 7.7526e-015
lhumerus -53.3293 11.843 74.602
lradius 51.2669
lwrist -8.15306
lhand -30.1403 -14.7109
lfingers 7.12502
lthumb -3.45297 15.2409
rfemur -22.2102 26.8894 6.92843
rtibia 18.729
rfoot -8.93597 0.264202
rtoes 0.268302
lfemur -10.5854 -9.3256 -24.2625
ltibia 20.3517
lfoot -19.8763 39.242
ltoes 33.2703
749
root 3.12814 16.2867 0.0100905 -166.65 -60.9033 175.245
lowerback -3.75118 -1.00347 -2.10924
upperback -3.77741 -1.40037 -0.0219244
thorax -1.72938 -0.700178 1.12946
lowerneck 3.07587 15.6504 11.005
upperneck 21.987 22.297 -10.5816
head 8.85738 10.3947 -3.45178
rclavicle 2.06191e-014 -1.92821e-014
rhumerus -52.1054 -10.3467 -75.832
rradius 42.0005
rwrist 2.48648
rhand -17.0654 -46.1571
rfingers 7.12502
rthumb 9.17224 -75.9376
lclavicle 2.06191e-014 -1.92821e-014
lhumerus -53.3399 11.7721 74.6203
lradius 51.234
lwrist -8.23312
lhand -30.1473 -14.9101
lfingers 7.12502
lthumb -3.45969 15.0416
rfemur -22.2507 26.8865 6.92978
rtibia 18.7183
rfoot -8.9001 0.275612
rtoes 0.427649
lfemur -10.6203 -9.46627 -24.2237
ltibia 20.346
lfoot -19.9657 39.3356
ltoes 33.4481
750
root 3.12592 16.2866 0.00848854 -166.637 -60.8878 175.233
lowerback -3.71421 -0.958952 -2.14443
upperback -3.8357 -1.34384 0.00337523
thorax -1.81092 -0.670364 1.17794
lowerneck 3.28619 15.8203 11.1844
upperneck 21.9481 22.5674 -10.7108
head 8.88056 10.5357 -3.49664
rclavicle -7.94634e-014 -3.37934e-015
rhumerus -52.289 -10.4004 -75.6656
rradius 42.0565
rwrist 2.64213
rhand -16.8536 -45.9136
rfingers 7.12502
rthumb 9.37664 -75.685
lclavicle -7.94634e-014 -3.37934e-015
lhumerus -53.4959 11.7859 74.6493
lradius 51.3303
lwrist -8.26417
lhand -30.0308 -14.7963
lfingers 7.12502
lthumb -3.34723 15.1572
rfemur -22.2439 26.9547 6.90486
rtibia 18.7141
rfoot -8.92569 0.236595
rtoes 0.797145
lfemur -10.6099 -9.44636 -24.2387
ltibia 20.3422
lfoot -19.9654 39.3723
ltoes 33.6223
751
root 3.12345 16.287 0.00901872 -166.604 -60.9113 175.185
lowerback -3.73744 -0.935072 -2.13054
upperback -3.82282 -1.31132 -0.0117057
thorax -1.78641 -0.654813 1.1548
lowerneck 3.49842 15.9643 11.3686
upperneck 21.7764 22.7944 -10.8345
head 8.85199 10.666 -3.54766
rclavicle 4.58533e-014 -7.35503e-015
rhumerus -52.2725 -10.5617 -75.5548
rradius 41.9495
rwrist 2.87841
rhand -16.8524 -45.7408
rfingers 7.12502
rthumb 9.37778 -75.5122
lclavicle 4.58533e-014 -7.35503e-015
lhumerus -53.5445 11.8003 74.6655
lradius 51.4065
lwrist -8.25464
lhand -30.1292 -14.6611
lfingers 7.12502
lthumb -3.44224 15.2909
rfemur -22.2094 26.9292 6.8912
rtibia 18.7094
rfoot -8.96606 0.242845
rtoes 0.645844
lfemur -10.5983 -9.51804 -24.2695
ltibia 20.353
lfoot -20.0584 39.424
ltoes 33.6815
752
root 3.12157 16.2867 0.0103976 -166.625 -61.059 175.179
lowerback -3.71877 -0.888496 -2.01367
upperback -3.81164 -1.25202 -0.0715931
thorax -1.79073 -0.62833 1.02948
lowerneck 3.55798 16.1111 11.5565
upperneck 21.8033 23.0017 -10.795
head 8.89734 10.7847 -3.53253
rclavicle 4.41795e-014 2.54444e-014
rhumerus -52.3354 -10.7795 -75.5075
rradius 41.9598
rwrist 2.89459
rhand -16.882 -45.6743
rfingers 7.12502
rthumb 9.34918 -75.447
lclavicle 4.41795e-014 2.54444e-014
lhumerus -53.5194 11.6028 74.7309
lradius 51.378
lwrist -8.12787
lhand -30.2097 -14.8171
lfingers 7.12502
lthumb -3.51994 15.1336
rfemur -22.1215 26.882 6.93697
rtibia 18.6869
rfoot -9.00908 0.157122
rtoes 0.457416
lfemur -10.5956 -9.56891 -24.2496
ltibia 20.3847
lfoot -19.7704 39.4112
ltoes 33.0272
